<mxfile host="app.diagrams.net" modified="2022-12-22T21:50:54.863Z" agent="5.0 (X11; Linux x86_64) AppleWebKit/537.36 (KHTML, like Gecko) Chrome/108.0.0.0 Safari/537.36" version="20.7.4" etag="Uy7R0ymx9lhhW9zhDk-D" type="github">
  <diagram id="UsdTxMq36XvGu7O-eaXz" name="第 1 页">
    <mxGraphModel dx="1434" dy="775" grid="1" gridSize="10" guides="1" tooltips="1" connect="1" arrows="1" fold="1" page="1" pageScale="1" pageWidth="827" pageHeight="1169" math="0" shadow="0">
      <root>
        <mxCell id="0" />
        <mxCell id="1" parent="0" />
        <mxCell id="7XDXypY_LlYhkSdRMJlv-1" value="" style="rounded=0;whiteSpace=wrap;html=1;" vertex="1" parent="1">
          <mxGeometry x="150" y="90" width="200" height="120" as="geometry" />
        </mxCell>
        <mxCell id="7XDXypY_LlYhkSdRMJlv-2" value="生成排程列表" style="rounded=1;whiteSpace=wrap;html=1;" vertex="1" parent="1">
          <mxGeometry x="190" y="140" width="120" height="60" as="geometry" />
        </mxCell>
        <mxCell id="7XDXypY_LlYhkSdRMJlv-7" value="Edge Server" style="text;html=1;strokeColor=none;fillColor=none;align=center;verticalAlign=middle;whiteSpace=wrap;rounded=0;" vertex="1" parent="1">
          <mxGeometry x="200" y="100" width="100" height="30" as="geometry" />
        </mxCell>
        <mxCell id="7XDXypY_LlYhkSdRMJlv-21" value="" style="rounded=0;whiteSpace=wrap;html=1;" vertex="1" parent="1">
          <mxGeometry x="590" y="310" width="180" height="140" as="geometry" />
        </mxCell>
        <mxCell id="7XDXypY_LlYhkSdRMJlv-22" value="" style="rounded=0;whiteSpace=wrap;html=1;" vertex="1" parent="1">
          <mxGeometry x="150" y="310" width="230" height="140" as="geometry" />
        </mxCell>
        <mxCell id="7XDXypY_LlYhkSdRMJlv-23" value="UE" style="text;html=1;strokeColor=none;fillColor=none;align=center;verticalAlign=middle;whiteSpace=wrap;rounded=0;" vertex="1" parent="1">
          <mxGeometry x="650" y="330" width="60" height="30" as="geometry" />
        </mxCell>
        <mxCell id="7XDXypY_LlYhkSdRMJlv-25" value="生成系統資訊" style="rounded=1;whiteSpace=wrap;html=1;" vertex="1" parent="1">
          <mxGeometry x="620" y="370" width="120" height="60" as="geometry" />
        </mxCell>
        <mxCell id="7XDXypY_LlYhkSdRMJlv-27" value="" style="endArrow=classic;html=1;rounded=0;entryX=0;entryY=0.75;entryDx=0;entryDy=0;exitX=1;exitY=0.75;exitDx=0;exitDy=0;" edge="1" parent="1" source="7XDXypY_LlYhkSdRMJlv-29" target="7XDXypY_LlYhkSdRMJlv-25">
          <mxGeometry width="50" height="50" relative="1" as="geometry">
            <mxPoint x="380" y="415" as="sourcePoint" />
            <mxPoint x="440" y="200" as="targetPoint" />
          </mxGeometry>
        </mxCell>
        <mxCell id="7XDXypY_LlYhkSdRMJlv-28" value="1. 請求UE系統資訊" style="text;html=1;strokeColor=none;fillColor=none;align=center;verticalAlign=middle;whiteSpace=wrap;rounded=0;" vertex="1" parent="1">
          <mxGeometry x="420" y="420" width="130" height="30" as="geometry" />
        </mxCell>
        <mxCell id="7XDXypY_LlYhkSdRMJlv-29" value="統整UE資訊" style="rounded=1;whiteSpace=wrap;html=1;" vertex="1" parent="1">
          <mxGeometry x="290" y="340" width="70" height="100" as="geometry" />
        </mxCell>
        <mxCell id="7XDXypY_LlYhkSdRMJlv-30" value="" style="endArrow=classic;html=1;rounded=0;exitX=0;exitY=0.25;exitDx=0;exitDy=0;entryX=1.014;entryY=0.44;entryDx=0;entryDy=0;entryPerimeter=0;" edge="1" parent="1" source="7XDXypY_LlYhkSdRMJlv-25" target="7XDXypY_LlYhkSdRMJlv-29">
          <mxGeometry width="50" height="50" relative="1" as="geometry">
            <mxPoint x="390" y="240" as="sourcePoint" />
            <mxPoint x="360" y="390" as="targetPoint" />
          </mxGeometry>
        </mxCell>
        <mxCell id="7XDXypY_LlYhkSdRMJlv-31" value="2.傳送內部通道UE資訊封包" style="text;html=1;strokeColor=none;fillColor=none;align=center;verticalAlign=middle;whiteSpace=wrap;rounded=0;" vertex="1" parent="1">
          <mxGeometry x="400" y="360" width="170" height="30" as="geometry" />
        </mxCell>
        <mxCell id="7XDXypY_LlYhkSdRMJlv-32" value="生成UE&lt;br&gt;整合列表" style="rounded=1;whiteSpace=wrap;html=1;" vertex="1" parent="1">
          <mxGeometry x="160" y="340" width="80" height="100" as="geometry" />
        </mxCell>
        <mxCell id="7XDXypY_LlYhkSdRMJlv-33" value="" style="endArrow=classic;html=1;rounded=0;exitX=0;exitY=0.5;exitDx=0;exitDy=0;entryX=1;entryY=0.5;entryDx=0;entryDy=0;" edge="1" parent="1" source="7XDXypY_LlYhkSdRMJlv-29" target="7XDXypY_LlYhkSdRMJlv-32">
          <mxGeometry width="50" height="50" relative="1" as="geometry">
            <mxPoint x="390" y="220" as="sourcePoint" />
            <mxPoint x="440" y="170" as="targetPoint" />
          </mxGeometry>
        </mxCell>
        <mxCell id="7XDXypY_LlYhkSdRMJlv-34" value="" style="endArrow=classic;html=1;rounded=0;exitX=0;exitY=0.25;exitDx=0;exitDy=0;entryX=0.75;entryY=1;entryDx=0;entryDy=0;" edge="1" parent="1" source="7XDXypY_LlYhkSdRMJlv-32" target="7XDXypY_LlYhkSdRMJlv-2">
          <mxGeometry width="50" height="50" relative="1" as="geometry">
            <mxPoint x="390" y="220" as="sourcePoint" />
            <mxPoint x="250" y="270" as="targetPoint" />
            <Array as="points">
              <mxPoint x="120" y="365" />
              <mxPoint x="120" y="270" />
              <mxPoint x="280" y="270" />
            </Array>
          </mxGeometry>
        </mxCell>
        <mxCell id="7XDXypY_LlYhkSdRMJlv-35" value="" style="endArrow=classic;html=1;rounded=0;exitX=0.358;exitY=1.017;exitDx=0;exitDy=0;exitPerimeter=0;entryX=0;entryY=0.75;entryDx=0;entryDy=0;" edge="1" parent="1" source="7XDXypY_LlYhkSdRMJlv-2" target="7XDXypY_LlYhkSdRMJlv-32">
          <mxGeometry width="50" height="50" relative="1" as="geometry">
            <mxPoint x="220" y="240" as="sourcePoint" />
            <mxPoint x="80" y="430" as="targetPoint" />
            <Array as="points">
              <mxPoint x="233" y="240" />
              <mxPoint x="80" y="240" />
              <mxPoint x="80" y="415" />
            </Array>
          </mxGeometry>
        </mxCell>
        <mxCell id="7XDXypY_LlYhkSdRMJlv-37" value="" style="endArrow=classic;html=1;rounded=0;entryX=1.005;entryY=0.575;entryDx=0;entryDy=0;entryPerimeter=0;" edge="1" parent="1" target="7XDXypY_LlYhkSdRMJlv-1">
          <mxGeometry width="50" height="50" relative="1" as="geometry">
            <mxPoint x="330" y="340" as="sourcePoint" />
            <mxPoint x="440" y="170" as="targetPoint" />
            <Array as="points">
              <mxPoint x="330" y="323" />
              <mxPoint x="440" y="323" />
              <mxPoint x="440" y="250" />
              <mxPoint x="440" y="160" />
            </Array>
          </mxGeometry>
        </mxCell>
        <mxCell id="7XDXypY_LlYhkSdRMJlv-38" value="" style="endArrow=classic;html=1;rounded=0;exitX=1;exitY=0.75;exitDx=0;exitDy=0;entryX=0.25;entryY=0;entryDx=0;entryDy=0;" edge="1" parent="1" source="7XDXypY_LlYhkSdRMJlv-1" target="7XDXypY_LlYhkSdRMJlv-29">
          <mxGeometry x="-0.223" y="77" width="50" height="50" relative="1" as="geometry">
            <mxPoint x="390" y="220" as="sourcePoint" />
            <mxPoint x="420" y="240" as="targetPoint" />
            <Array as="points">
              <mxPoint x="400" y="180" />
              <mxPoint x="400" y="270" />
              <mxPoint x="360" y="270" />
              <mxPoint x="308" y="270" />
            </Array>
            <mxPoint as="offset" />
          </mxGeometry>
        </mxCell>
        <mxCell id="7XDXypY_LlYhkSdRMJlv-39" value="4.統整整完成請求Edge Server提取列表" style="text;html=1;strokeColor=none;fillColor=none;align=center;verticalAlign=middle;whiteSpace=wrap;rounded=0;" vertex="1" parent="1">
          <mxGeometry x="445" y="220" width="125" height="50" as="geometry" />
        </mxCell>
        <mxCell id="7XDXypY_LlYhkSdRMJlv-40" value="3.Edge Server確認是否統整完成" style="text;html=1;strokeColor=none;fillColor=none;align=center;verticalAlign=middle;whiteSpace=wrap;rounded=0;" vertex="1" parent="1">
          <mxGeometry x="295" y="230" width="110" height="30" as="geometry" />
        </mxCell>
        <mxCell id="7XDXypY_LlYhkSdRMJlv-43" value="5.列表位址請求" style="text;html=1;strokeColor=none;fillColor=none;align=center;verticalAlign=middle;whiteSpace=wrap;rounded=0;" vertex="1" parent="1">
          <mxGeometry x="50" y="280" width="60" height="30" as="geometry" />
        </mxCell>
        <mxCell id="7XDXypY_LlYhkSdRMJlv-44" value="6.回傳列表位址" style="text;html=1;strokeColor=none;fillColor=none;align=center;verticalAlign=middle;whiteSpace=wrap;rounded=0;" vertex="1" parent="1">
          <mxGeometry x="154" y="255" width="60" height="30" as="geometry" />
        </mxCell>
        <mxCell id="7XDXypY_LlYhkSdRMJlv-45" value="" style="endArrow=classic;html=1;rounded=0;exitX=0;exitY=0.75;exitDx=0;exitDy=0;entryX=0.25;entryY=1;entryDx=0;entryDy=0;" edge="1" parent="1" source="7XDXypY_LlYhkSdRMJlv-2" target="7XDXypY_LlYhkSdRMJlv-32">
          <mxGeometry width="50" height="50" relative="1" as="geometry">
            <mxPoint x="390" y="160" as="sourcePoint" />
            <mxPoint x="200" y="480" as="targetPoint" />
            <Array as="points">
              <mxPoint x="40" y="185" />
              <mxPoint x="40" y="480" />
              <mxPoint x="180" y="480" />
            </Array>
          </mxGeometry>
        </mxCell>
        <mxCell id="7XDXypY_LlYhkSdRMJlv-46" value="" style="endArrow=classic;html=1;rounded=0;exitX=0.625;exitY=1;exitDx=0;exitDy=0;exitPerimeter=0;entryX=0;entryY=0.5;entryDx=0;entryDy=0;" edge="1" parent="1" source="7XDXypY_LlYhkSdRMJlv-32" target="7XDXypY_LlYhkSdRMJlv-2">
          <mxGeometry width="50" height="50" relative="1" as="geometry">
            <mxPoint x="390" y="320" as="sourcePoint" />
            <mxPoint x="210" y="500" as="targetPoint" />
            <Array as="points">
              <mxPoint x="210" y="510" />
              <mxPoint x="30" y="510" />
              <mxPoint x="30" y="170" />
            </Array>
          </mxGeometry>
        </mxCell>
        <mxCell id="7XDXypY_LlYhkSdRMJlv-49" value="7.向Edge Server 請求新排程" style="text;html=1;strokeColor=none;fillColor=none;align=center;verticalAlign=middle;whiteSpace=wrap;rounded=0;" vertex="1" parent="1">
          <mxGeometry x="30" y="135" width="100" height="30" as="geometry" />
        </mxCell>
        <mxCell id="7XDXypY_LlYhkSdRMJlv-50" value="8. Edge Server新排程位址" style="text;html=1;strokeColor=none;fillColor=none;align=center;verticalAlign=middle;whiteSpace=wrap;rounded=0;" vertex="1" parent="1">
          <mxGeometry x="60" y="450" width="90" height="30" as="geometry" />
        </mxCell>
        <mxCell id="7XDXypY_LlYhkSdRMJlv-51" value="" style="endArrow=classic;html=1;rounded=0;exitX=1.013;exitY=0.65;exitDx=0;exitDy=0;exitPerimeter=0;entryX=0.014;entryY=0.65;entryDx=0;entryDy=0;entryPerimeter=0;" edge="1" parent="1" source="7XDXypY_LlYhkSdRMJlv-32" target="7XDXypY_LlYhkSdRMJlv-29">
          <mxGeometry width="50" height="50" relative="1" as="geometry">
            <mxPoint x="390" y="290" as="sourcePoint" />
            <mxPoint x="440" y="240" as="targetPoint" />
          </mxGeometry>
        </mxCell>
        <mxCell id="7XDXypY_LlYhkSdRMJlv-52" value="gnodeB" style="text;html=1;strokeColor=none;fillColor=none;align=center;verticalAlign=middle;whiteSpace=wrap;rounded=0;" vertex="1" parent="1">
          <mxGeometry x="235" y="320" width="60" height="30" as="geometry" />
        </mxCell>
      </root>
    </mxGraphModel>
  </diagram>
</mxfile>
